<?xml version="1.0" standalone="no"?><!DOCTYPE svg PUBLIC "-//W3C//DTD SVG 1.1//EN" "http://www.w3.org/Graphics/SVG/1.1/DTD/svg11.dtd"><svg t="1579856782435" class="icon" viewBox="0 0 1024 1024" version="1.1" xmlns="http://www.w3.org/2000/svg" p-id="11463" xmlns:xlink="http://www.w3.org/1999/xlink" width="200" height="200"><defs><style type="text/css"></style></defs><path d="M357.4 591.6h-77.8c-14.3 0-25.9-11.6-25.9-25.9s11.6-25.9 25.9-25.9h77.8c14.3 0 25.9 11.6 25.9 25.9s-11.6 25.9-25.9 25.9zM564.9 591.6h-77.8c-14.3 0-25.9-11.6-25.9-25.9s11.6-25.9 25.9-25.9h77.8c14.3 0 25.9 11.6 25.9 25.9s-11.6 25.9-25.9 25.9zM772.4 591.6h-77.8c-14.3 0-25.9-11.6-25.9-25.9s11.6-25.9 25.9-25.9h77.8c14.3 0 25.9 11.6 25.9 25.9s-11.6 25.9-25.9 25.9zM902.1 435.9H123.9c-14.3 0-25.9-11.6-25.9-25.9s11.6-25.9 25.9-25.9H902c14.3 0 25.9 11.6 25.9 25.9s-11.5 25.9-25.8 25.9zM357.4 747.2h-77.8c-14.3 0-25.9-11.6-25.9-25.9s11.6-25.9 25.9-25.9h77.8c14.3 0 25.9 11.6 25.9 25.9s-11.6 25.9-25.9 25.9zM564.9 747.2h-77.8c-14.3 0-25.9-11.6-25.9-25.9s11.6-25.9 25.9-25.9h77.8c14.3 0 25.9 11.6 25.9 25.9s-11.6 25.9-25.9 25.9z" fill="#f69873" opacity=".498" p-id="11464"></path><path d="M798.3 176.6h-51.9v-51.9c0-14.3-11.6-25.9-25.9-25.9s-25.9 11.6-25.9 25.9v51.9H357.4v-51.9c0-14.3-11.6-25.9-25.9-25.9s-25.9 11.6-25.9 25.9v51.9h-77.8C156.2 176.6 98 234.7 98 306.2V799c0 71.5 58.2 129.7 129.7 129.7h570.6c71.5 0 129.7-58.2 129.7-129.7V306.2c0-71.5-58.2-129.6-129.7-129.6zM876.1 799c0 42.9-34.9 77.8-77.8 77.8H227.7c-42.9 0-77.8-34.9-77.8-77.8V306.2c0-42.9 34.9-77.8 77.8-77.8h77.8v51.9c0 14.3 11.6 25.9 25.9 25.9s25.9-11.6 25.9-25.9v-51.9h337.2v51.9c0 14.3 11.6 25.9 25.9 25.9s25.9-11.6 25.9-25.9v-51.9h51.9c42.9 0 77.8 34.9 77.8 77.8V799z" fill="#f69873" p-id="11465"></path></svg>