<?xml version="1.0" standalone="no"?><!DOCTYPE svg PUBLIC "-//W3C//DTD SVG 1.1//EN" "http://www.w3.org/Graphics/SVG/1.1/DTD/svg11.dtd"><svg t="1580014550335" class="icon" viewBox="0 0 1024 1024" version="1.1" xmlns="http://www.w3.org/2000/svg" p-id="17173" xmlns:xlink="http://www.w3.org/1999/xlink" width="200" height="200"><defs><style type="text/css"></style></defs><path d="M904.061 528.276a73.318 73.318 0 0 0 5.348-27.521V140.004c0-40.658-33.078-73.736-73.736-73.736H188.326c-40.658 0-73.736 33.078-73.736 73.736v360.751a73.318 73.318 0 0 0 5.348 27.521c-6.826 9.58-10.863 21.267-10.863 33.858v190.474c0 32.233 26.373 58.607 58.607 58.607h29.304v114.518c0 17.6 14.4 32 32 32h82.518c17.6 0 32-14.4 32-32V811.215h336.991v114.518c0 17.6 14.4 32 32 32h82.518c17.6 0 32-14.4 32-32V811.215h29.303c32.234 0 58.607-26.374 58.607-58.607V562.134c0.002-12.591-4.036-24.278-10.862-33.858zM178.59 140.004c0-5.369 4.368-9.736 9.736-9.736h647.347c5.368 0 9.736 4.368 9.736 9.736v360.751a9.69 9.69 0 0 1-0.408 2.772H178.998a9.695 9.695 0 0 1-0.408-2.772V140.004z m-10.908 502.715c0-36.415 29.519-65.933 65.933-65.933s65.933 29.518 65.933 65.933-29.519 65.933-65.933 65.933-65.933-29.518-65.933-65.933z m622.702 80.585c-36.414 0-65.933-29.518-65.933-65.933s29.519-65.933 65.933-65.933 65.933 29.518 65.933 65.933-29.519 65.933-65.933 65.933z" p-id="17174" fill="#abe990"></path></svg>