<?xml version="1.0" standalone="no"?><!DOCTYPE svg PUBLIC "-//W3C//DTD SVG 1.1//EN" "http://www.w3.org/Graphics/SVG/1.1/DTD/svg11.dtd"><svg t="1579856668576" class="icon" viewBox="0 0 1024 1024" version="1.1" xmlns="http://www.w3.org/2000/svg" p-id="10888" xmlns:xlink="http://www.w3.org/1999/xlink" width="200" height="200"><defs><style type="text/css"></style></defs><path d="M225.7 190.4h674.4v696.9H225.7z" fill="#91B4FF" p-id="10889"></path><path d="M123 672c-14.2 0-25.7-11.5-25.7-25.7v-55.6c0-14.2 11.5-25.7 25.7-25.7s25.7 11.5 25.7 25.7v55.6c0 14.2-11.5 25.7-25.7 25.7z" fill="#3778FF" p-id="10890"></path><path d="M900.1 912.9H123c-14.2 0-25.7-11.5-25.7-25.7V751.8c0-14.2 11.5-25.7 25.7-25.7s25.7 11.5 25.7 25.7v109.8h725.8V216.1H148.7v287.7c0 14.2-11.5 25.7-25.7 25.7S97.3 518 97.3 503.8V190.4c0-14.2 11.5-25.7 25.7-25.7h777.1c14.2 0 25.7 11.5 25.7 25.7v696.9c-0.1 14.2-11.5 25.6-25.7 25.6z" fill="#3778FF" p-id="10891"></path><path d="M900.1 409.2H123c-14.2 0-25.7-11.5-25.7-25.7s11.5-25.7 25.7-25.7h777.1c14.2 0 25.7 11.5 25.7 25.7s-11.5 25.7-25.7 25.7zM298.2 269.5c-14.2 0-25.7-11.5-25.7-25.7V136.9c0-14.2 11.5-25.7 25.7-25.7s25.7 11.5 25.7 25.7v106.9c0 14.2-11.5 25.7-25.7 25.7zM724.9 269.5c-14.2 0-25.7-11.5-25.7-25.7V136.9c0-14.2 11.5-25.7 25.7-25.7s25.7 11.5 25.7 25.7v106.9c-0.1 14.2-11.6 25.7-25.7 25.7z" fill="#3778FF" p-id="10892"></path><path d="M355.3 681.2h49V536.9H363v-28.1c22.8-4.3 38.5-10.2 53-19.1h33.6v191.4h42.9v36.7H355.3v-36.6zM524.8 691.7c62-55.5 98.7-98.3 98.7-133.5 0-23.1-12.6-37-34.2-37-16.6 0-30.5 10.8-41.9 23.4L522.7 520c21-22.2 41.3-34.5 72.4-34.5 43.2 0 71.8 27.8 71.8 70.3 0 41.3-34.2 85.7-75.8 126.4 11.4-1.2 26.5-2.5 37-2.5h49.6v38.2H524.8v-26.2z" fill="#3778FF" p-id="10893"></path></svg>