<?xml version="1.0" standalone="no"?><!DOCTYPE svg PUBLIC "-//W3C//DTD SVG 1.1//EN" "http://www.w3.org/Graphics/SVG/1.1/DTD/svg11.dtd"><svg t="1579856962122" class="icon" viewBox="0 0 1024 1024" version="1.1" xmlns="http://www.w3.org/2000/svg" p-id="13315" xmlns:xlink="http://www.w3.org/1999/xlink" width="200" height="200"><defs><style type="text/css"></style></defs><path d="M172.039649 1024h559.859403V38.934164A38.911124 38.911124 0 0 0 683.004152 1.303011L152.072098 145.171774a56.318733 56.318733 0 0 0-41.727061 54.270779V962.561382A61.694612 61.694612 0 0 0 172.039649 1024z" fill="#70BBEF" p-id="13316"></path><path d="M110.345037 143.379814m51.198848 0l700.656235 0q51.198848 0 51.198849 51.198848l0 778.22249q0 51.198848-51.198849 51.198848l-700.656235 0q-51.198848 0-51.198848-51.198848l0-778.22249q0-51.198848 51.198848-51.198848Z" fill="#94CFF7" p-id="13317"></path><path d="M913.654963 195.346645a51.198848 51.198848 0 0 0-51.198848-51.198848H162.311868a51.198848 51.198848 0 0 0-51.198848 51.198848V972.801152a51.198848 51.198848 0 0 0 51.198848 51.198848h175.612049a1023.976961 1023.976961 0 0 0 269.049946-114.429425c145.148734-87.806024 232.954759-202.747438 307.193088-325.880668z" fill="#AAD6F9" p-id="13318"></path><path d="M615.933661 350.735148A122.877235 122.877235 0 0 0 512 409.613824a122.877235 122.877235 0 0 0-103.933661-58.622681 100.349742 100.349742 0 0 0-102.397697 104.189655 176.636026 176.636026 0 0 0 72.190376 135.676948A467.701477 467.701477 0 0 0 512 661.512156a467.701477 467.701477 0 0 0 134.908965-70.910405 176.636026 176.636026 0 0 0 72.190375-135.676947 100.349742 100.349742 0 0 0-103.165679-104.189656z" fill="#F0A0F2" p-id="13319"></path><path d="M713.467467 419.341605a97.7898 97.7898 0 0 0-97.533806-68.606457A122.877235 122.877235 0 0 0 512 409.613824a122.877235 122.877235 0 0 0-103.933661-58.622681 100.349742 100.349742 0 0 0-102.397697 104.189655 176.636026 176.636026 0 0 0 72.190376 135.676948 276.729774 276.729774 0 0 0 25.599424 17.919597H409.602304c150.268619 0 275.961791-81.406168 303.865163-189.435738z" fill="#F5AEF4" p-id="13320"></path><path d="M352.0036 419.341605m-12.031729 0a12.031729 12.031729 0 1 0 24.063458 0 12.031729 12.031729 0 1 0-24.063458 0Z" fill="#FFFFFF" p-id="13321"></path><path d="M332.804032 457.484747c2.559942-14.335677 12.799712-17.407608 17.663602-11.519741s-3.327925 15.10366 3.327926 46.590951a506.100613 506.100613 0 0 0 18.431585 53.246802c0 5.631873-21.75951-18.943574-31.99928-44.031009a87.806024 87.806024 0 0 1-7.423833-44.287003z" fill="#FFFFFF" p-id="13322"></path></svg>