<?xml version="1.0" standalone="no"?><!DOCTYPE svg PUBLIC "-//W3C//DTD SVG 1.1//EN" "http://www.w3.org/Graphics/SVG/1.1/DTD/svg11.dtd"><svg t="1579856872453" class="icon" viewBox="0 0 1024 1024" version="1.1" xmlns="http://www.w3.org/2000/svg" p-id="11833" xmlns:xlink="http://www.w3.org/1999/xlink" width="200" height="200"><defs><style type="text/css"></style></defs><path d="M864 864h-704c-57.472 0-96-37.696-96-96V256c0-58.304 38.528-96 96-96h704c57.472 0 96 37.632 96 96v512c0 58.304-38.528 96-96 96zM896 256c0-19.456-12.864-32-32-32h-704c-19.136 0-32 12.544-32 32v512c0 19.392 12.864 32 32 32h704c19.136 0 32-12.608 32-32V256z m-96 480h-320A32 32 0 0 0 512 704v-32a32 32 0 0 0-32-32h-128a32 32 0 0 0-32 32v32a32 32 0 0 0 32 32h-128c-19.136 0-32-12.608-32-32V320c0-19.456 12.864-32 32-32h576c19.136 0 32 12.544 32 32v384c0 19.392-12.864 32-32 32z" p-id="11834" fill="#12c86a"></path></svg>