<?xml version="1.0" standalone="no"?><!DOCTYPE svg PUBLIC "-//W3C//DTD SVG 1.1//EN" "http://www.w3.org/Graphics/SVG/1.1/DTD/svg11.dtd"><svg t="1579856939281" class="icon" viewBox="0 0 1024 1024" version="1.1" xmlns="http://www.w3.org/2000/svg" p-id="12531" xmlns:xlink="http://www.w3.org/1999/xlink" width="200" height="200"><defs><style type="text/css"></style></defs><path d="M805.9 701.2h-489c-4.7 0-8.5-3.8-8.5-8.5V121.1c0-4.7 3.8-8.5 8.5-8.5h489c4.7 0 8.5 3.8 8.5 8.5v571.5c0 4.7-3.9 8.6-8.5 8.6z" fill="#FFFFFF" p-id="12532"></path><path d="M805.9 718.2h-489c-14 0-25.5-11.5-25.5-25.5V121.1c0-14 11.5-25.5 25.5-25.5h489c14 0 25.5 11.5 25.5 25.5v571.5c0 14.1-11.5 25.6-25.5 25.6z m-480.5-34h472V129.6h-472v554.6z" fill="#03A9F4" p-id="12533"></path><path d="M739.5 759.2h-489c-4.7 0-8.5-3.8-8.5-8.5V179.2c0-4.7 3.8-8.5 8.5-8.5h489c4.7 0 8.5 3.8 8.5 8.5v571.5c0 4.7-3.8 8.5-8.5 8.5z" fill="#FFFFFF" p-id="12534"></path><path d="M739.5 776.2h-489c-14 0-25.5-11.5-25.5-25.5V179.2c0-14 11.5-25.5 25.5-25.5h489c14 0 25.5 11.5 25.5 25.5v571.5c0 14-11.5 25.5-25.5 25.5z m-480.5-34h472V187.7H259v554.5z" fill="#03A9F4" p-id="12535"></path><path d="M415.8 393.2h-80.2v-21.3h26.8v-82.3l-27.5 6.2v-22l54.4-11.5v109.4h26.6v21.5z" fill="#546E7A" p-id="12536"></path><path d="M418 395.3h-84.5v-25.6h26.8v-77.5l-27.5 6.2V272l58.6-12.4v110H418v25.7z m-80.3-4.2h76v-17.2h-26.6V265L337 275.5v17.6l27.5-6.2v87h-26.8v17.2z m107.2-60c0-22.3 4.1-39.3 12.3-51 8.2-11.7 20.1-17.6 35.5-17.6 29.6 0 44.3 21.8 44.3 65.5 0 21.5-4 38.2-12.1 49.8-8 11.7-19.6 17.6-34.8 17.6-30.2 0.1-45.2-21.4-45.2-64.3z m27.1-0.7c0 29.7 6.4 44.4 19 44.4 12.4 0 18.7-15.3 18.7-45.8 0-30.7-6-46-18.2-46-13 0.1-19.5 15.9-19.5 47.4z" fill="#546E7A" p-id="12537"></path><path d="M490 397.5c-12.9 0-23.4-3.9-31-11.5-10.8-10.7-16.2-29.2-16.2-55 0-22.6 4.2-40.2 12.7-52.2 8.5-12.2 21.1-18.5 37.2-18.5 30.8 0 46.4 22.8 46.4 67.6 0 21.9-4.2 39.1-12.4 51-8.3 12.2-20.6 18.5-36.5 18.5h-0.2z m2.7-132.9c-14.7 0-26.1 5.6-33.7 16.7-7.9 11.3-12 28-12 49.8 0 24.6 5 42 15 51.9 6.8 6.8 16.2 10.3 28 10.3h0.2c14.4 0 25.5-5.6 33-16.7 7.7-11.2 11.7-27.5 11.7-48.6 0-42.6-13.8-63.4-42.2-63.4zM491 377c-14 0-21.2-15.6-21.2-46.6 0-33.3 7.1-49.5 21.7-49.5 13.7 0 20.3 15.7 20.3 48.1 0 31.8-6.9 48-20.8 48z m0.5-91.8c-11.6 0-17.4 15.2-17.4 45.2 0 28 5.7 42.3 16.9 42.3 11 0 16.6-14.7 16.6-43.7 0-29-5.4-43.8-16.1-43.8zM562.9 331.1c0-22.3 4.1-39.3 12.3-51 8.2-11.7 20.1-17.6 35.5-17.6 29.6 0 44.3 21.8 44.3 65.5 0 21.5-4 38.2-12.1 49.8-8 11.7-19.6 17.6-34.8 17.6-30.1 0.1-45.2-21.4-45.2-64.3z m27.1-0.7c0 29.7 6.4 44.4 19 44.4 12.4 0 18.7-15.3 18.7-45.8 0-30.7-6-46-18.2-46-12.9 0.1-19.5 15.9-19.5 47.4z" fill="#546E7A" p-id="12538"></path><path d="M608 397.5c-12.9 0-23.3-3.9-30.9-11.6-10.8-10.8-16.2-29.2-16.2-54.9 0-22.6 4.2-40.2 12.7-52.2 8.5-12.2 21.1-18.5 37.2-18.5 30.8 0 46.4 22.8 46.4 67.6 0 21.9-4.2 39.1-12.4 51-8.3 12.2-20.6 18.5-36.5 18.5l-0.3 0.1z m2.8-132.9c-14.7 0-26.1 5.6-33.7 16.7-7.9 11.3-12 28-12 49.8 0 24.5 5 42 15 51.9 6.9 6.8 16.2 10.3 28 10.3h0.2c14.4 0 25.5-5.6 33-16.7C649 365.4 653 349.1 653 328c-0.1-42.6-13.9-63.4-42.2-63.4zM609.1 377c-14 0-21.2-15.6-21.2-46.6 0-32.8 7.3-49.5 21.7-49.5 13.7 0 20.3 15.7 20.3 48.1 0 31.8-7 48-20.8 48z m0.5-91.8c-11.6 0-17.4 15.2-17.4 45.2 0 28 5.7 42.3 16.9 42.3 11 0 16.6-14.7 16.6-43.7-0.1-29-5.5-43.8-16.1-43.8zM495.1 615.6H332v-54.4h163.1v54.4zM658 452.8H332.2v53.6h325.9l-0.1-53.6z" fill="#546E7A" p-id="12539"></path><path d="M794.2 556.9h81.2c28.5 0 51.4 23 51.4 51.4l0.1 276.8H96.8l0.8-23.1V530c0-28.4 22.9-51.4 51.3-51.4h251.8c28.4 0 51.4 23 51.4 51.4v27h296.7m127.3 371.3H147.5c-25.6 0-46.8-18.8-50.7-43.3h830.1c-4 24.5-25 43.3-50.8 43.3z" fill="#FFCA28" p-id="12540"></path><path d="M927.2 871.1h-830v-31.3h830v31.3zM97.4 580.8H163c4.9 0 8.8-5.1 8.8-11.3 0-6.3-4-11.3-8.8-11.3H97.4m0 77.3H163c4.9 0 8.8-5.1 8.8-11.3 0-6.3-4-11.3-8.8-11.3H97.4m-0.6 76.6h65.4c4.9 0 8.8-5.1 8.8-11.3 0-6.3-3.9-11.3-8.8-11.3H96.8" fill="#FFA000" p-id="12541"></path></svg>